<svg xmlns="http://www.w3.org/2000/svg" viewBox="0 0 64 64" width="64" height="64">
  <defs>
    <linearGradient id="deepl-gradient" x1="0%" y1="0%" x2="100%" y2="100%">
      <stop offset="0%" style="stop-color:#0F2027;stop-opacity:1" />
      <stop offset="50%" style="stop-color:#203A43;stop-opacity:1" />
      <stop offset="100%" style="stop-color:#2C5364;stop-opacity:1" />
    </linearGradient>
  </defs>
  
  <circle cx="32" cy="32" r="30" fill="url(#deepl-gradient)" stroke="#0F2027" stroke-width="2"/>
  
  <!-- DeepL logo-like design -->
  <path d="M18 20 L18 44 L28 44 Q36 44, 36 36 Q36 32, 32 32 L22 32 L22 28 L30 28 Q34 28, 34 24 Q34 20, 30 20 L18 20 Z" fill="white"/>
  
  <!-- Deep learning neural network nodes -->
  <circle cx="42" cy="22" r="2" fill="white" opacity="0.8"/>
  <circle cx="46" cy="28" r="1.5" fill="white" opacity="0.6"/>
  <circle cx="44" cy="34" r="2" fill="white" opacity="0.8"/>
  <circle cx="48" cy="40" r="1.5" fill="white" opacity="0.6"/>
  
  <!-- Connecting lines -->
  <path d="M42 22 L46 28 L44 34 L48 40" stroke="white" stroke-width="1" fill="none" opacity="0.4"/>
  
  <text x="32" y="55" text-anchor="middle" fill="white" font-family="sans-serif" font-size="6" font-weight="bold">DEEPL</text>
</svg>