<svg xmlns="http://www.w3.org/2000/svg" viewBox="0 0 64 64" width="64" height="64">
  <!-- Background circle with gradient -->
  <defs>
    <linearGradient id="dreamface-gradient" x1="0%" y1="0%" x2="100%" y2="100%">
      <stop offset="0%" style="stop-color:#FF6B9D;stop-opacity:1" />
      <stop offset="30%" style="stop-color:#C44569;stop-opacity:1" />
      <stop offset="70%" style="stop-color:#A55EEA;stop-opacity:1" />
      <stop offset="100%" style="stop-color:#6C5CE7;stop-opacity:1" />
    </linearGradient>
    <radialGradient id="dreamface-glow" cx="50%" cy="50%" r="50%">
      <stop offset="0%" stop-color="#FFFFFF" stop-opacity="0.4"/>
      <stop offset="100%" stop-color="#FFFFFF" stop-opacity="0"/>
    </radialGradient>
  </defs>
  
  <!-- Main background -->
  <circle cx="32" cy="32" r="30" fill="url(#dreamface-gradient)" stroke="#5A4FCF" stroke-width="2"/>
  
  <!-- Face outline -->
  <ellipse cx="32" cy="30" rx="12" ry="16" fill="#FFFFFF" stroke="#E8E8FF" stroke-width="1" opacity="0.9"/>
  
  <!-- Eyes -->
  <g fill="#6C5CE7">
    <!-- Left eye -->
    <ellipse cx="28" cy="27" rx="2.5" ry="3"/>
    <circle cx="28.5" cy="26" r="1" fill="#FFFFFF"/>
    <!-- Right eye -->
    <ellipse cx="36" cy="27" rx="2.5" ry="3"/>
    <circle cx="36.5" cy="26" r="1" fill="#FFFFFF"/>
  </g>
  
  <!-- Nose -->
  <ellipse cx="32" cy="32" rx="1" ry="1.5" fill="#E8E8FF"/>
  
  <!-- Mouth -->
  <path d="M 28 36 Q 32 38, 36 36" stroke="#6C5CE7" stroke-width="2" fill="none" stroke-linecap="round"/>
  
  <!-- Dream sparkles around face -->
  <g fill="#FFFFFF" opacity="0.8">
    <!-- Large sparkles -->
    <path d="M 16 20 L 17 22 L 19 21 L 17 23 L 16 25 L 15 23 L 13 24 L 15 22 Z"/>
    <path d="M 46 18 L 47 20 L 49 19 L 47 21 L 46 23 L 45 21 L 43 22 L 45 20 Z"/>
    <path d="M 48 42 L 49 44 L 51 43 L 49 45 L 48 47 L 47 45 L 45 46 L 47 44 Z"/>
    <path d="M 14 40 L 15 42 L 17 41 L 15 43 L 14 45 L 13 43 L 11 44 L 13 42 Z"/>
    
    <!-- Small sparkles -->
    <circle cx="22" cy="14" r="1"/>
    <circle cx="52" cy="30" r="1"/>
    <circle cx="50" cy="50" r="1"/>
    <circle cx="12" cy="32" r="1"/>
  </g>
  
  <!-- AI processing waves -->
  <g fill="none" stroke="#FFFFFF" stroke-width="1.5" opacity="0.6">
    <path d="M 8 24 Q 12 22, 16 24 Q 20 26, 24 24" stroke-linecap="round"/>
    <path d="M 40 24 Q 44 22, 48 24 Q 52 26, 56 24" stroke-linecap="round"/>
    <path d="M 10 48 Q 14 46, 18 48 Q 22 50, 26 48" stroke-linecap="round"/>
    <path d="M 38 48 Q 42 46, 46 48 Q 50 50, 54 48" stroke-linecap="round"/>
  </g>
  
  <!-- Neural network connections -->
  <g stroke="#FFFFFF" stroke-width="1" opacity="0.5">
    <circle cx="18" cy="16" r="1.5" fill="#FFFFFF"/>
    <circle cx="46" cy="14" r="1.5" fill="#FFFFFF"/>
    <circle cx="50" cy="54" r="1.5" fill="#FFFFFF"/>
    <circle cx="14" cy="52" r="1.5" fill="#FFFFFF"/>
    
    <!-- Connection lines -->
    <line x1="18" y1="16" x2="28" y2="24"/>
    <line x1="46" y1="14" x2="36" y2="24"/>
    <line x1="50" y1="54" x2="40" y2="46"/>
    <line x1="14" y1="52" x2="24" y2="44"/>
  </g>
  
  <!-- Glow effect -->
  <circle cx="32" cy="32" r="30" fill="url(#dreamface-glow)"/>
</svg>