<svg xmlns="http://www.w3.org/2000/svg" viewBox="0 0 64 64" width="64" height="64">
  <defs>
    <linearGradient id="elevenlabs-gradient" x1="0%" y1="0%" x2="100%" y2="100%">
      <stop offset="0%" style="stop-color:#FF6B35;stop-opacity:1" />
      <stop offset="50%" style="stop-color:#F7931E;stop-opacity:1" />
      <stop offset="100%" style="stop-color:#FFD23F;stop-opacity:1" />
    </linearGradient>
  </defs>
  
  <circle cx="32" cy="32" r="30" fill="url(#elevenlabs-gradient)" stroke="#E8590C" stroke-width="2"/>
  
  <!-- Number "11" stylized -->
  <rect x="22" y="20" width="4" height="24" fill="white" rx="2"/>
  <rect x="30" y="20" width="4" height="24" fill="white" rx="2"/>
  
  <!-- Sound waves emanating from the "11" -->
  <path d="M38 24 Q42 20, 46 24 Q42 28, 38 24" stroke="white" stroke-width="2" fill="none" opacity="0.8"/>
  <path d="M38 32 Q42 28, 46 32 Q42 36, 38 32" stroke="white" stroke-width="2" fill="none" opacity="0.6"/>
  <path d="M38 40 Q42 36, 46 40 Q42 44, 38 40" stroke="white" stroke-width="2" fill="none" opacity="0.4"/>
  
  <!-- Additional sound indicators -->
  <circle cx="48" cy="20" r="1" fill="white" opacity="0.6"/>
  <circle cx="50" cy="32" r="1.5" fill="white" opacity="0.8"/>
  <circle cx="48" cy="44" r="1" fill="white" opacity="0.6"/>
  
  <!-- Labs beaker/flask icon -->
  <path d="M14 38 L16 34 L16 22 L12 22 L12 20 L20 20 L20 22 L16 22 L16 34 L18 38 Q18 42, 16 42 L14 42 Q12 42, 12 38 Q12 38, 14 38" fill="white" opacity="0.7"/>
  <circle cx="14" cy="25" r="1" fill="#FF6B35"/>
  
  <text x="32" y="55" text-anchor="middle" fill="white" font-family="sans-serif" font-size="5" font-weight="bold">ELEVENLABS</text>
</svg>