<svg xmlns="http://www.w3.org/2000/svg" viewBox="0 0 64 64" width="64" height="64">
  <!-- Background circle with gradient -->
  <defs>
    <linearGradient id="flow-gradient" x1="0%" y1="0%" x2="100%" y2="100%">
      <stop offset="0%" style="stop-color:#667eea;stop-opacity:1" />
      <stop offset="30%" style="stop-color:#764ba2;stop-opacity:1" />
      <stop offset="70%" style="stop-color:#f093fb;stop-opacity:1" />
      <stop offset="100%" style="stop-color:#f5576c;stop-opacity:1" />
    </linearGradient>
    <radialGradient id="flow-glow" cx="50%" cy="50%" r="50%">
      <stop offset="0%" stop-color="#FFFFFF" stop-opacity="0.4"/>
      <stop offset="100%" stop-color="#FFFFFF" stop-opacity="0"/>
    </radialGradient>
  </defs>
  
  <!-- Main background -->
  <circle cx="32" cy="32" r="30" fill="url(#flow-gradient)" stroke="#5A4FCF" stroke-width="2"/>
  
  <!-- Artist palette -->
  <g fill="#FFFFFF">
    <!-- Palette shape -->
    <path d="M 22 24 Q 18 20, 24 18 Q 32 16, 40 20 Q 46 24, 44 30 Q 42 36, 36 38 Q 30 40, 26 36 Q 22 32, 22 24 Z" 
          stroke="#E8E8FF" stroke-width="1" opacity="0.9"/>
    
    <!-- Thumb hole -->
    <ellipse cx="34" cy="30" rx="4" ry="6" fill="none" stroke="#FFFFFF" stroke-width="2"/>
  </g>
  
  <!-- Paint colors on palette -->
  <g>
    <circle cx="26" cy="22" r="2" fill="#FF6B9D"/>
    <circle cx="32" cy="20" r="2" fill="#4ECDC4"/>
    <circle cx="38" cy="22" r="2" fill="#FFD93D"/>
    <circle cx="42" cy="28" r="2" fill="#6BCF7F"/>
    <circle cx="40" cy="34" r="2" fill="#A8E6CF"/>
    <circle cx="28" cy="34" r="2" fill="#FF8B94"/>
  </g>
  
  <!-- Paintbrush -->
  <g fill="#FFFFFF">
    <!-- Brush handle -->
    <rect x="44" y="42" width="12" height="2" rx="1" transform="rotate(45 50 43)"/>
    <!-- Brush ferrule (metal part) -->
    <rect x="40" y="40" width="4" height="2" rx="1" transform="rotate(45 42 41)" fill="#E8E8FF"/>
    <!-- Brush bristles -->
    <ellipse cx="38" cy="38" rx="2" ry="3" transform="rotate(45 38 38)" fill="#F0F0F0"/>
  </g>
  
  <!-- AI magic sparkles -->
  <g fill="#FFFFFF" opacity="0.9">
    <!-- Large sparkles -->
    <path d="M 14 16 L 15 18 L 17 17 L 15 19 L 14 21 L 13 19 L 11 20 L 13 18 Z"/>
    <path d="M 48 12 L 49 14 L 51 13 L 49 15 L 48 17 L 47 15 L 45 16 L 47 14 Z"/>
    <path d="M 50 48 L 51 50 L 53 49 L 51 51 L 50 53 L 49 51 L 47 52 L 49 50 Z"/>
    <path d="M 12 48 L 13 50 L 15 49 L 13 51 L 12 53 L 11 51 L 9 52 L 11 50 Z"/>
    
    <!-- Small sparkles -->
    <circle cx="20" cy="12" r="1"/>
    <circle cx="54" cy="26" r="1"/>
    <circle cx="54" cy="56" r="1"/>
    <circle cx="8" cy="36" r="1"/>
  </g>
  
  <!-- Creative flow lines -->
  <g fill="none" stroke="#FFFFFF" stroke-width="1.5" opacity="0.7">
    <path d="M 8 20 Q 16 24, 24 20 Q 32 16, 40 20" stroke-linecap="round"/>
    <path d="M 12 44 Q 20 48, 28 44 Q 36 40, 44 44" stroke-linecap="round"/>
    <path d="M 16 32 Q 24 28, 32 32 Q 40 36, 48 32" stroke-linecap="round"/>
  </g>
  
  <!-- Image generation frames -->
  <g stroke="#FFFFFF" stroke-width="1" fill="none" opacity="0.6">
    <rect x="6" y="8" width="8" height="6" rx="1"/>
    <rect x="50" y="8" width="8" height="6" rx="1"/>
    <rect x="6" y="50" width="8" height="6" rx="1"/>
    <rect x="50" y="50" width="8" height="6" rx="1"/>
  </g>
  
  <!-- Color swatches -->
  <g fill="#FFFFFF" opacity="0.5">
    <rect x="58" y="30" width="2" height="2" rx="0.5"/>
    <rect x="58" y="33" width="2" height="2" rx="0.5"/>
    <rect x="58" y="36" width="2" height="2" rx="0.5"/>
    <rect x="4" y="30" width="2" height="2" rx="0.5"/>
    <rect x="4" y="33" width="2" height="2" rx="0.5"/>
    <rect x="4" y="36" width="2" height="2" rx="0.5"/>
  </g>
  
  <!-- Design tools indicator -->
  <g fill="#FFFFFF" opacity="0.7">
    <circle cx="18" cy="54" r="1"/>
    <rect x="21" y="53" width="2" height="2" rx="0.5"/>
    <path d="M 25 52 L 27 54 L 25 56 L 23 54 Z"/>
  </g>
  
  <!-- Glow effect -->
  <circle cx="32" cy="32" r="30" fill="url(#flow-glow)"/>
</svg>