<svg xmlns="http://www.w3.org/2000/svg" viewBox="0 0 64 64" width="64" height="64">
  <!-- Background circle -->
  <circle cx="32" cy="32" r="30" fill="#1B73E8" stroke="#0F5FC7" stroke-width="2"/>
  
  <!-- Spark/Lightning effect -->
  <path d="M22 16 L29 22 L26 26 L35 29 L32 35 L35 32 L29 42 L32 35 L29 32 L19 29 L22 22 Z" 
        fill="#FFC107" stroke="#FF8F00" stroke-width="1"/>
  
  <!-- Search circle -->
  <circle cx="26" cy="26" r="8" fill="none" stroke="#FFFFFF" stroke-width="2"/>
  
  <!-- Search handle -->
  <line x1="32" y1="32" x2="37" y2="37" stroke="#FFFFFF" stroke-width="2" stroke-linecap="round"/>
  
  <!-- AI Brain pattern -->
  <g fill="#E8F0FE" opacity="0.8">
    <circle cx="42" cy="19" r="1.5"/>
    <circle cx="45" cy="22" r="1"/>
    <circle cx="48" cy="19" r="0.8"/>
    <circle cx="43" cy="16" r="0.8"/>
    <circle cx="46" cy="18" r="0.6"/>
  </g>
  
  <!-- Connection lines for AI -->
  <g stroke="#E8F0FE" stroke-width="0.8" opacity="0.6">
    <line x1="42" y1="19" x2="45" y2="22"/>
    <line x1="45" y1="22" x2="48" y2="19"/>
    <line x1="43" y1="16" x2="42" y2="19"/>
    <line x1="45" y1="22" x2="46" y2="18"/>
  </g>
  
  <!-- Glow effect -->
  <defs>
    <radialGradient id="glow" cx="50%" cy="50%" r="50%">
      <stop offset="0%" stop-color="#FFFFFF" stop-opacity="0.3"/>
      <stop offset="100%" stop-color="#FFFFFF" stop-opacity="0"/>
    </radialGradient>
  </defs>
  <circle cx="32" cy="32" r="30" fill="url(#glow)"/>
</svg>