<svg xmlns="http://www.w3.org/2000/svg" viewBox="0 0 64 64" width="64" height="64">
  <defs>
    <linearGradient id="google-ai-studio-gradient" x1="0%" y1="0%" x2="100%" y2="100%">
      <stop offset="0%" style="stop-color:#4285F4;stop-opacity:1" />
      <stop offset="25%" style="stop-color:#34A853;stop-opacity:1" />
      <stop offset="50%" style="stop-color:#FBBC04;stop-opacity:1" />
      <stop offset="75%" style="stop-color:#EA4335;stop-opacity:1" />
      <stop offset="100%" style="stop-color:#9C27B0;stop-opacity:1" />
    </linearGradient>
  </defs>
  
  <circle cx="32" cy="32" r="30" fill="url(#google-ai-studio-gradient)" stroke="#1976D2" stroke-width="2"/>
  
  <!-- Google "G" in center -->
  <circle cx="32" cy="32" r="12" fill="white"/>
  <path d="M32 22 Q40 22, 40 30 L37 30 Q37 25, 32 25 Q27 25, 27 30 Q27 35, 32 35 L36 35 L36 37 L32 37 Q24 37, 24 30 Q24 22, 32 22" fill="#4285F4"/>
  
  <!-- Studio/workspace elements around -->
  <rect x="16" y="16" width="8" height="6" fill="white" opacity="0.9" rx="1"/>
  <rect x="40" y="16" width="8" height="6" fill="white" opacity="0.9" rx="1"/>
  <rect x="16" y="42" width="8" height="6" fill="white" opacity="0.9" rx="1"/>
  <rect x="40" y="42" width="8" height="6" fill="white" opacity="0.9" rx="1"/>
  
  <!-- Code/AI elements -->
  <circle cx="19" cy="19" r="1" fill="#4285F4"/>
  <circle cx="21" cy="19" r="1" fill="#34A853"/>
  <circle cx="19" cy="21" r="1" fill="#FBBC04"/>
  
  <circle cx="43" cy="19" r="1" fill="#EA4335"/>
  <circle cx="45" cy="19" r="1" fill="#9C27B0"/>
  <circle cx="43" cy="21" r="1" fill="#4285F4"/>
  
  <circle cx="19" cy="45" r="1" fill="#34A853"/>
  <circle cx="21" cy="45" r="1" fill="#FBBC04"/>
  <circle cx="19" cy="47" r="1" fill="#EA4335"/>
  
  <circle cx="43" cy="45" r="1" fill="#9C27B0"/>
  <circle cx="45" cy="45" r="1" fill="#4285F4"/>
  <circle cx="43" cy="47" r="1" fill="#34A853"/>
  
  <!-- AI brain waves -->
  <path d="M8 32 Q12 28, 16 32 Q12 36, 8 32" stroke="white" stroke-width="2" fill="none" opacity="0.8"/>
  <path d="M48 32 Q52 28, 56 32 Q52 36, 48 32" stroke="white" stroke-width="2" fill="none" opacity="0.8"/>
  
  <text x="32" y="57" text-anchor="middle" fill="white" font-family="sans-serif" font-size="5" font-weight="bold">AI STUDIO</text>
</svg>