<svg xmlns="http://www.w3.org/2000/svg" viewBox="0 0 64 64" width="64" height="64">
  <defs>
    <linearGradient id="gtranslate-gradient" x1="0%" y1="0%" x2="100%" y2="100%">
      <stop offset="0%" style="stop-color:#4285F4;stop-opacity:1" />
      <stop offset="33%" style="stop-color:#34A853;stop-opacity:1" />
      <stop offset="66%" style="stop-color:#FBBC04;stop-opacity:1" />
      <stop offset="100%" style="stop-color:#EA4335;stop-opacity:1" />
    </linearGradient>
  </defs>
  
  <circle cx="32" cy="32" r="30" fill="url(#gtranslate-gradient)" stroke="#1976D2" stroke-width="2"/>
  
  <!-- Google "G" stylized -->
  <path d="M32 18 Q42 18, 42 28 L38 28 Q38 22, 32 22 Q26 22, 26 28 Q26 34, 32 34 L36 34 L36 38 L32 38 Q22 38, 22 28 Q22 18, 32 18" fill="white"/>
  
  <!-- Translation arrows -->
  <path d="M16 42 L20 38 L16 34" stroke="white" stroke-width="2" fill="none" stroke-linecap="round" stroke-linejoin="round"/>
  <path d="M48 34 L44 38 L48 42" stroke="white" stroke-width="2" fill="none" stroke-linecap="round" stroke-linejoin="round"/>
  <path d="M20 38 L44 38" stroke="white" stroke-width="2" fill="none" opacity="0.7"/>
  
  <!-- Language symbols -->
  <text x="24" y="16" text-anchor="middle" fill="white" font-family="sans-serif" font-size="8" font-weight="bold">A</text>
  <text x="40" y="50" text-anchor="middle" fill="white" font-family="sans-serif" font-size="8" font-weight="bold">한</text>
  
  <text x="32" y="58" text-anchor="middle" fill="white" font-family="sans-serif" font-size="5" font-weight="bold">TRANSLATE</text>
</svg>