<svg xmlns="http://www.w3.org/2000/svg" viewBox="0 0 64 64" width="64" height="64">
  <defs>
    <linearGradient id="hailuo-gradient" x1="0%" y1="0%" x2="100%" y2="100%">
      <stop offset="0%" style="stop-color:#667eea;stop-opacity:1" />
      <stop offset="50%" style="stop-color:#764ba2;stop-opacity:1" />
      <stop offset="100%" style="stop-color:#f093fb;stop-opacity:1" />
    </linearGradient>
  </defs>
  
  <circle cx="32" cy="32" r="30" fill="url(#hailuo-gradient)" stroke="#5A67D8" stroke-width="2"/>
  
  <!-- Hailuo wave/flow design -->
  <path d="M10 25 Q16 20, 22 25 Q28 30, 34 25 Q40 20, 46 25 Q52 30, 58 25" stroke="white" stroke-width="3" fill="none" opacity="0.9"/>
  <path d="M10 32 Q16 27, 22 32 Q28 37, 34 32 Q40 27, 46 32 Q52 37, 58 32" stroke="white" stroke-width="2.5" fill="none" opacity="0.7"/>
  <path d="M10 39 Q16 34, 22 39 Q28 44, 34 39 Q40 34, 46 39 Q52 44, 58 39" stroke="white" stroke-width="2" fill="none" opacity="0.5"/>
  
  <!-- AI neural network nodes -->
  <circle cx="20" cy="20" r="2" fill="white" opacity="0.8"/>
  <circle cx="32" cy="15" r="2.5" fill="white" opacity="0.9"/>
  <circle cx="44" cy="20" r="2" fill="white" opacity="0.8"/>
  <circle cx="15" cy="45" r="1.5" fill="white" opacity="0.6"/>
  <circle cx="49" cy="45" r="1.5" fill="white" opacity="0.6"/>
  
  <!-- Connecting lines -->
  <path d="M20 20 L32 15 L44 20" stroke="white" stroke-width="1" fill="none" opacity="0.4"/>
  
  <text x="32" y="56" text-anchor="middle" fill="white" font-family="sans-serif" font-size="6" font-weight="bold">HAILUO AI</text>
</svg>