<svg xmlns="http://www.w3.org/2000/svg" viewBox="0 0 64 64" width="64" height="64">
  <defs>
    <linearGradient id="heygen-gradient" x1="0%" y1="0%" x2="100%" y2="100%">
      <stop offset="0%" style="stop-color:#6366F1;stop-opacity:1" />
      <stop offset="50%" style="stop-color:#8B5CF6;stop-opacity:1" />
      <stop offset="100%" style="stop-color:#A855F7;stop-opacity:1" />
    </linearGradient>
  </defs>
  
  <circle cx="32" cy="32" r="30" fill="url(#heygen-gradient)" stroke="#5B21B6" stroke-width="2"/>
  
  <!-- Avatar face -->
  <circle cx="32" cy="28" r="8" fill="white" opacity="0.9"/>
  
  <!-- Eyes -->
  <circle cx="28" cy="26" r="1.5" fill="#6366F1"/>
  <circle cx="36" cy="26" r="1.5" fill="#6366F1"/>
  
  <!-- Smile -->
  <path d="M27 30 Q32 34, 37 30" stroke="#6366F1" stroke-width="1.5" fill="none" stroke-linecap="round"/>
  
  <!-- Voice waves -->
  <path d="M42 28 Q45 25, 48 28 Q45 31, 42 28" stroke="white" stroke-width="2" fill="none" opacity="0.8"/>
  <path d="M16 28 Q19 25, 22 28 Q19 31, 16 28" stroke="white" stroke-width="2" fill="none" opacity="0.8"/>
  
  <!-- Sound indicators -->
  <circle cx="44" cy="22" r="1" fill="white" opacity="0.7"/>
  <circle cx="46" cy="34" r="1" fill="white" opacity="0.7"/>
  <circle cx="18" cy="22" r="1" fill="white" opacity="0.7"/>
  <circle cx="20" cy="34" r="1" fill="white" opacity="0.7"/>
  
  <!-- Body/shoulders -->
  <path d="M22 36 Q32 40, 42 36 Q40 44, 32 42 Q24 44, 22 36" fill="white" opacity="0.7"/>
  
  <text x="32" y="55" text-anchor="middle" fill="white" font-family="sans-serif" font-size="6" font-weight="bold">HEYGEN</text>
</svg>