<svg xmlns="http://www.w3.org/2000/svg" viewBox="0 0 64 64" width="64" height="64">
  <!-- Background circle with gradient -->
  <defs>
    <linearGradient id="imagefx-gradient" x1="0%" y1="0%" x2="100%" y2="100%">
      <stop offset="0%" style="stop-color:#4285F4;stop-opacity:1" />
      <stop offset="25%" style="stop-color:#34A853;stop-opacity:1" />
      <stop offset="50%" style="stop-color:#FBBC04;stop-opacity:1" />
      <stop offset="75%" style="stop-color:#EA4335;stop-opacity:1" />
      <stop offset="100%" style="stop-color:#9C27B0;stop-opacity:1" />
    </linearGradient>
    <radialGradient id="imagefx-glow" cx="50%" cy="50%" r="50%">
      <stop offset="0%" stop-color="#FFFFFF" stop-opacity="0.4"/>
      <stop offset="100%" stop-color="#FFFFFF" stop-opacity="0"/>
    </radialGradient>
  </defs>
  
  <!-- Main background -->
  <circle cx="32" cy="32" r="30" fill="url(#imagefx-gradient)" stroke="#1565C0" stroke-width="2"/>
  
  <!-- Camera/Image generation symbol -->
  <g fill="#FFFFFF">
    <!-- Camera body -->
    <rect x="18" y="24" width="28" height="20" rx="4" stroke="#E3F2FD" stroke-width="1"/>
    <!-- Camera lens -->
    <circle cx="32" cy="34" r="8" fill="#1976D2"/>
    <circle cx="32" cy="34" r="6" fill="#FFFFFF" opacity="0.9"/>
    <circle cx="32" cy="34" r="4" fill="#1976D2"/>
    <!-- Camera flash -->
    <rect x="40" y="26" width="4" height="2" rx="1"/>
  </g>
  
  <!-- Magic sparkles around camera -->
  <g fill="#FFFFFF" opacity="0.9">
    <!-- Large sparkles -->
    <path d="M 16 18 L 17 20 L 19 19 L 17 21 L 16 23 L 15 21 L 13 22 L 15 20 Z"/>
    <path d="M 46 16 L 47 18 L 49 17 L 47 19 L 46 21 L 45 19 L 43 20 L 45 18 Z"/>
    <path d="M 48 46 L 49 48 L 51 47 L 49 49 L 48 51 L 47 49 L 45 50 L 47 48 Z"/>
    <path d="M 14 44 L 15 46 L 17 45 L 15 47 L 14 49 L 13 47 L 11 48 L 13 46 Z"/>
    
    <!-- Small sparkles -->
    <circle cx="22" cy="16" r="1"/>
    <circle cx="52" cy="24" r="1"/>
    <circle cx="50" cy="38" r="1"/>
    <circle cx="12" cy="36" r="1"/>
    <circle cx="24" cy="50" r="1"/>
    <circle cx="42" cy="52" r="1"/>
  </g>
  
  <!-- FX text effect -->
  <g fill="#FFFFFF" stroke="#1565C0" stroke-width="0.5">
    <!-- F -->
    <path d="M 20 12 L 20 8 L 26 8 L 26 9 L 21.5 9 L 21.5 10 L 25 10 L 25 11 L 21.5 11 L 21.5 12 Z"/>
    <!-- X -->
    <path d="M 28 8 L 30 10 L 32 8 L 33 8 L 31 10 L 33 12 L 32 12 L 30 10 L 28 12 L 27 12 L 29 10 L 27 8 Z"/>
  </g>
  
  <!-- Image generation waves -->
  <g fill="none" stroke="#FFFFFF" stroke-width="1" opacity="0.6">
    <path d="M 8 28 Q 12 26, 16 28 Q 20 30, 24 28" stroke-linecap="round"/>
    <path d="M 40 28 Q 44 26, 48 28 Q 52 30, 56 28" stroke-linecap="round"/>
    <path d="M 10 40 Q 14 38, 18 40 Q 22 42, 26 40" stroke-linecap="round"/>
    <path d="M 38 40 Q 42 38, 46 40 Q 50 42, 54 40" stroke-linecap="round"/>
  </g>
  
  <!-- AI processing indicators -->
  <g fill="#FFFFFF" opacity="0.7">
    <rect x="26" y="50" width="2" height="3" rx="1"/>
    <rect x="28" y="48" width="2" height="5" rx="1"/>
    <rect x="30" y="49" width="2" height="4" rx="1"/>
    <rect x="32" y="47" width="2" height="6" rx="1"/>
    <rect x="34" y="49" width="2" height="4" rx="1"/>
    <rect x="36" y="48" width="2" height="5" rx="1"/>
    <rect x="38" y="50" width="2" height="3" rx="1"/>
  </g>
  
  <!-- Glow effect -->
  <circle cx="32" cy="32" r="30" fill="url(#imagefx-glow)"/>
</svg>