<svg xmlns="http://www.w3.org/2000/svg" viewBox="0 0 64 64" width="64" height="64">
  <!-- Background circle with gradient -->
  <defs>
    <linearGradient id="sora-gradient" x1="0%" y1="0%" x2="100%" y2="100%">
      <stop offset="0%" style="stop-color:#10A37F;stop-opacity:1" />
      <stop offset="30%" style="stop-color:#00A67D;stop-opacity:1" />
      <stop offset="70%" style="stop-color:#00C896;stop-opacity:1" />
      <stop offset="100%" style="stop-color:#26D0CE;stop-opacity:1" />
    </linearGradient>
    <radialGradient id="sora-glow" cx="50%" cy="50%" r="50%">
      <stop offset="0%" stop-color="#FFFFFF" stop-opacity="0.4"/>
      <stop offset="100%" stop-color="#FFFFFF" stop-opacity="0"/>
    </radialGradient>
  </defs>
  
  <!-- Main background -->
  <circle cx="32" cy="32" r="30" fill="url(#sora-gradient)" stroke="#0D9488" stroke-width="2"/>
  
  <!-- Video frame -->
  <rect x="14" y="20" width="36" height="24" rx="4" fill="#FFFFFF" stroke="#E5E7EB" stroke-width="1"/>
  
  <!-- Play button in center -->
  <g fill="#10A37F">
    <circle cx="32" cy="32" r="8" opacity="0.9"/>
    <path d="M 28 28 L 28 36 L 36 32 Z" fill="#FFFFFF"/>
  </g>
  
  <!-- Video progress bar -->
  <rect x="16" y="46" width="32" height="2" rx="1" fill="#E5E7EB"/>
  <rect x="16" y="46" width="18" height="2" rx="1" fill="#10A37F"/>
  
  <!-- Film strip perforations -->
  <g fill="#E5E7EB">
    <rect x="12" y="22" width="2" height="2" rx="1"/>
    <rect x="12" y="26" width="2" height="2" rx="1"/>
    <rect x="12" y="30" width="2" height="2" rx="1"/>
    <rect x="12" y="34" width="2" height="2" rx="1"/>
    <rect x="12" y="38" width="2" height="2" rx="1"/>
    
    <rect x="50" y="22" width="2" height="2" rx="1"/>
    <rect x="50" y="26" width="2" height="2" rx="1"/>
    <rect x="50" y="30" width="2" height="2" rx="1"/>
    <rect x="50" y="34" width="2" height="2" rx="1"/>
    <rect x="50" y="38" width="2" height="2" rx="1"/>
  </g>
  
  <!-- Magic transformation sparkles -->
  <g fill="#FFFFFF" opacity="0.9">
    <!-- Large sparkles -->
    <path d="M 20 12 L 21 14 L 23 13 L 21 15 L 20 17 L 19 15 L 17 16 L 19 14 Z"/>
    <path d="M 44 10 L 45 12 L 47 11 L 45 13 L 44 15 L 43 13 L 41 14 L 43 12 Z"/>
    <path d="M 46 48 L 47 50 L 49 49 L 47 51 L 46 53 L 45 51 L 43 52 L 45 50 Z"/>
    <path d="M 16 50 L 17 52 L 19 51 L 17 53 L 16 55 L 15 53 L 13 54 L 15 52 Z"/>
    
    <!-- Small sparkles -->
    <circle cx="24" cy="8" r="1"/>
    <circle cx="54" cy="24" r="1"/>
    <circle cx="52" cy="56" r="1"/>
    <circle cx="10" cy="40" r="1"/>
  </g>
  
  <!-- Text-to-video arrows -->
  <g fill="#FFFFFF" opacity="0.8">
    <!-- Text symbol -->
    <rect x="6" y="30" width="6" height="1" rx="0.5"/>
    <rect x="6" y="32" width="4" height="1" rx="0.5"/>
    <rect x="6" y="34" width="5" height="1" rx="0.5"/>
    
    <!-- Arrow -->
    <path d="M 13 30 L 13 36 M 10 33 L 13 30 L 16 33" stroke="#FFFFFF" stroke-width="1.5" fill="none" stroke-linecap="round" stroke-linejoin="round"/>
    
    <!-- Video symbol -->
    <rect x="52" y="30" width="6" height="4" rx="1" fill="none" stroke="#FFFFFF" stroke-width="1"/>
    <path d="M 54 31 L 54 33 L 56 32 Z" fill="#FFFFFF"/>
  </g>
  
  <!-- OpenAI brand elements -->
  <g fill="#FFFFFF" opacity="0.7">
    <circle cx="8" cy="16" r="1.5"/>
    <circle cx="56" cy="12" r="1.5"/>
    <circle cx="58" cy="44" r="1.5"/>
    <circle cx="6" cy="52" r="1.5"/>
  </g>
  
  <!-- Neural network connections -->
  <g stroke="#FFFFFF" stroke-width="1" opacity="0.5">
    <line x1="8" y1="16" x2="20" y2="12"/>
    <line x1="56" y1="12" x2="44" y2="10"/>
    <line x1="58" y1="44" x2="46" y2="48"/>
    <line x1="6" y1="52" x2="16" y2="50"/>
  </g>
  
  <!-- Cinema quality indicators -->
  <g fill="#FFFFFF" opacity="0.6">
    <rect x="36" y="50" width="1" height="3" rx="0.5"/>
    <rect x="38" y="48" width="1" height="5" rx="0.5"/>
    <rect x="40" y="49" width="1" height="4" rx="0.5"/>
    <rect x="42" y="47" width="1" height="6" rx="0.5"/>
    <rect x="44" y="49" width="1" height="4" rx="0.5"/>
  </g>
  
  <!-- Glow effect -->
  <circle cx="32" cy="32" r="30" fill="url(#sora-glow)"/>
</svg>