<svg xmlns="http://www.w3.org/2000/svg" viewBox="0 0 64 64" width="64" height="64">
  <!-- Background circle with gradient -->
  <defs>
    <linearGradient id="suno-gradient" x1="0%" y1="0%" x2="100%" y2="100%">
      <stop offset="0%" style="stop-color:#FF6B6B;stop-opacity:1" />
      <stop offset="50%" style="stop-color:#4ECDC4;stop-opacity:1" />
      <stop offset="100%" style="stop-color:#45B7D1;stop-opacity:1" />
    </linearGradient>
    <radialGradient id="suno-glow" cx="50%" cy="50%" r="50%">
      <stop offset="0%" stop-color="#FFFFFF" stop-opacity="0.4"/>
      <stop offset="100%" stop-color="#FFFFFF" stop-opacity="0"/>
    </radialGradient>
  </defs>
  
  <!-- Main background -->
  <circle cx="32" cy="32" r="30" fill="url(#suno-gradient)" stroke="#2C3E50" stroke-width="2"/>
  
  <!-- Sound waves -->
  <g fill="none" stroke="#FFFFFF" stroke-width="2" opacity="0.8">
    <path d="M 20 24 Q 25 20, 30 24 T 40 24" stroke-linecap="round"/>
    <path d="M 18 32 Q 25 28, 32 32 T 46 32" stroke-linecap="round"/>
    <path d="M 20 40 Q 25 36, 30 40 T 40 40" stroke-linecap="round"/>
  </g>
  
  <!-- Music note -->
  <g fill="#FFFFFF">
    <!-- Note head -->
    <ellipse cx="25" cy="38" rx="3" ry="2.5" transform="rotate(-20 25 38)"/>
    <!-- Note stem -->
    <rect x="27.5" y="25" width="1.5" height="13" rx="0.75"/>
    <!-- Note flag -->
    <path d="M 29 25 Q 35 22, 35 28 Q 32 26, 29 28 Z"/>
  </g>
  
  <!-- AI Brain waves -->
  <g fill="#FFFFFF" opacity="0.9">
    <circle cx="42" cy="20" r="1.5"/>
    <circle cx="46" cy="18" r="1"/>
    <circle cx="48" cy="22" r="1.2"/>
    <circle cx="44" cy="24" r="0.8"/>
  </g>
  
  <!-- Connection lines for AI -->
  <g stroke="#FFFFFF" stroke-width="1" opacity="0.7">
    <line x1="42" y1="20" x2="46" y2="18"/>
    <line x1="46" y1="18" x2="48" y2="22"/>
    <line x1="42" y1="20" x2="44" y2="24"/>
    <line x1="46" y1="18" x2="44" y2="24"/>
  </g>
  
  <!-- Equalizer bars -->
  <g fill="#FFFFFF" opacity="0.6">
    <rect x="38" y="35" width="2" height="8" rx="1"/>
    <rect x="41" y="32" width="2" height="11" rx="1"/>
    <rect x="44" y="36" width="2" height="7" rx="1"/>
    <rect x="47" y="30" width="2" height="13" rx="1"/>
  </g>
  
  <!-- Glow effect -->
  <circle cx="32" cy="32" r="30" fill="url(#suno-glow)"/>
</svg>