<svg xmlns="http://www.w3.org/2000/svg" viewBox="0 0 64 64" width="64" height="64">
  <!-- Background circle with gradient -->
  <defs>
    <linearGradient id="udio-gradient" x1="0%" y1="0%" x2="100%" y2="100%">
      <stop offset="0%" style="stop-color:#FF3366;stop-opacity:1" />
      <stop offset="30%" style="stop-color:#FF6B35;stop-opacity:1" />
      <stop offset="70%" style="stop-color:#F7931E;stop-opacity:1" />
      <stop offset="100%" style="stop-color:#FFD23F;stop-opacity:1" />
    </linearGradient>
    <radialGradient id="udio-glow" cx="50%" cy="50%" r="50%">
      <stop offset="0%" stop-color="#FFFFFF" stop-opacity="0.4"/>
      <stop offset="100%" stop-color="#FFFFFF" stop-opacity="0"/>
    </radialGradient>
  </defs>
  
  <!-- Main background -->
  <circle cx="32" cy="32" r="30" fill="url(#udio-gradient)" stroke="#B91C1C" stroke-width="2"/>
  
  <!-- UDIO letter U shape -->
  <path d="M 20 18 L 20 32 Q 20 40, 28 40 L 36 40 Q 44 40, 44 32 L 44 18" 
        fill="none" stroke="#FFFFFF" stroke-width="4" stroke-linecap="round"/>
  
  <!-- Musical staff lines -->
  <g stroke="#FFFFFF" stroke-width="1" opacity="0.6">
    <line x1="15" y1="46" x2="49" y2="46"/>
    <line x1="15" y1="49" x2="49" y2="49"/>
    <line x1="15" y1="52" x2="49" y2="52"/>
  </g>
  
  <!-- Musical notes on staff -->
  <g fill="#FFFFFF">
    <!-- First note -->
    <ellipse cx="22" cy="47" rx="2" ry="1.5" transform="rotate(-20 22 47)"/>
    <rect x="23.5" y="41" width="1.2" height="6" rx="0.6"/>
    
    <!-- Second note -->
    <ellipse cx="30" cy="50" rx="2" ry="1.5" transform="rotate(-20 30 50)"/>
    <rect x="31.5" y="44" width="1.2" height="6" rx="0.6"/>
    
    <!-- Third note -->
    <ellipse cx="38" cy="48" rx="2" ry="1.5" transform="rotate(-20 38 48)"/>
    <rect x="39.5" y="42" width="1.2" height="6" rx="0.6"/>
  </g>
  
  <!-- Sound waves emanating from U -->
  <g fill="none" stroke="#FFFFFF" stroke-width="1.5" opacity="0.7">
    <path d="M 12 24 Q 8 28, 12 32 Q 8 36, 12 40" stroke-linecap="round"/>
    <path d="M 52 24 Q 56 28, 52 32 Q 56 36, 52 40" stroke-linecap="round"/>
  </g>
  
  <!-- Additional sound ripples -->
  <g fill="none" stroke="#FFFFFF" stroke-width="1" opacity="0.5">
    <path d="M 8 20 Q 4 28, 8 36 Q 4 44, 8 52" stroke-linecap="round"/>
    <path d="M 56 20 Q 60 28, 56 36 Q 60 44, 56 52" stroke-linecap="round"/>
  </g>
  
  <!-- AI neural network dots -->
  <g fill="#FFFFFF" opacity="0.8">
    <circle cx="46" cy="15" r="1.5"/>
    <circle cx="50" cy="12" r="1"/>
    <circle cx="48" cy="18" r="1.2"/>
    <circle cx="52" cy="16" r="0.8"/>
  </g>
  
  <!-- Neural network connections -->
  <g stroke="#FFFFFF" stroke-width="0.8" opacity="0.6">
    <line x1="46" y1="15" x2="50" y2="12"/>
    <line x1="46" y1="15" x2="48" y2="18"/>
    <line x1="50" y1="12" x2="52" y2="16"/>
    <line x1="48" y1="18" x2="52" y2="16"/>
  </g>
  
  <!-- Frequency visualization bars -->
  <g fill="#FFFFFF" opacity="0.5">
    <rect x="16" y="12" width="1" height="3" rx="0.5"/>
    <rect x="18" y="10" width="1" height="5" rx="0.5"/>
    <rect x="20" y="11" width="1" height="4" rx="0.5"/>
    <rect x="44" y="12" width="1" height="3" rx="0.5"/>
    <rect x="46" y="10" width="1" height="5" rx="0.5"/>
    <rect x="48" y="11" width="1" height="4" rx="0.5"/>
  </g>
  
  <!-- Glow effect -->
  <circle cx="32" cy="32" r="30" fill="url(#udio-glow)"/>
</svg>